# xmcd CD database file generated by Grip 3.0.0
# 
# Track frame offsets:
#       150
#       15825
#       32575
#       46725
#       54845
#       66840
#       81140
#       101937
#       113787
#       138022
#       148484
#       160544
#       183624
#       196387
#       219400
#       230575
#       241223
#       253823
# 
# Disc length: 3635 seconds
# 
# Revision: 3
# Processed by: cddbd v1.4PL0 Copyright (c) Steve Scherf et al.
# Submitted via: Grip 3.0.0
# 
DISCID=f20e3112
DTITLE=Ennio Morricone - Best of I.
DYEAR=1900
DGENRE=Country
TTITLE0=Man With a Harmonica
TTITLE1=Once Upon a Time in the West
TTITLE2=Here's to You
TTITLE3=A Fistful of Dollars
TTITLE4=The Good, the Bad and the Ugly
TTITLE5=My Name Is Nobody
TTITLE6=A Fistful of Dynamite
TTITLE7=Farewell to Cheyenne
TTITLE8=The Ballad of Sacco and Vanzetti
TTITLE9=A Gun for Ringo
TTITLE10=Metello
TTITLE11=A Dimly Lit Room
TTITLE12=For a Few Dollars More
TTITLE13=Buona Fortuna, Jack
TTITLE14=Hopes of Freedom
TTITLE15=Metello (Version 3)
TTITLE16=Jill's America
TTITLE17=Finale
EXTD=Euroton EUCD-0087
EXTT0=Once Upon a Time in the West
EXTT1=Once Upon a Time in the West
EXTT2=Sacco and Vanzetti
EXTT3=A Fistful of Dollars
EXTT4=The Good, the Bad and the Ugly
EXTT5=My Name Is Nobody
EXTT6=A Fistful of Dynamite
EXTT7=Once Upon a Time in the West
EXTT8=Sacco and Vanzetti
EXTT9=A Gun for Ringo
EXTT10=Metello
EXTT11=Once Upon a Time in the West
EXTT12=For a Few Dollars More
EXTT13=My Name Is Nobody
EXTT14=Sacco and Vanzetti
EXTT15=Metello
EXTT16=Once Upon a Time in the West
EXTT17=Once Upon a Time in the West
PLAYORDER=
